<svg width="14" height="14" viewBox="0 0 14 14" fill="none" xmlns="http://www.w3.org/2000/svg">
<g id="icons">
<path id="Vector (Stroke)" fill-rule="evenodd" clip-rule="evenodd" d="M2.91602 2.33366C2.76131 2.33366 2.61293 2.39512 2.50354 2.50451C2.39414 2.61391 2.33268 2.76228 2.33268 2.91699V10.842L3.6702 9.50451C3.7796 9.39512 3.92797 9.33366 4.08268 9.33366H11.0827C11.2374 9.33366 11.3858 9.2722 11.4952 9.1628C11.6046 9.05341 11.666 8.90503 11.666 8.75033V2.91699C11.666 2.76228 11.6046 2.61391 11.4952 2.50451C11.3858 2.39512 11.2374 2.33366 11.0827 2.33366H2.91602ZM1.67858 1.67956C2.00677 1.35137 2.45189 1.16699 2.91602 1.16699H11.0827C11.5468 1.16699 11.9919 1.35137 12.3201 1.67956C12.6483 2.00774 12.8327 2.45286 12.8327 2.91699V8.75033C12.8327 9.21445 12.6483 9.65957 12.3201 9.98776C11.9919 10.316 11.5468 10.5003 11.0827 10.5003H4.32431L2.16183 12.6628C1.995 12.8296 1.74409 12.8795 1.52612 12.7893C1.30814 12.699 1.16602 12.4863 1.16602 12.2503V2.91699C1.16602 2.45286 1.35039 2.00774 1.67858 1.67956Z" fill="currentColor"/>
</g>
</svg>
