<svg width="20" height="20" viewBox="0 0 20 20" fill="none" xmlns="http://www.w3.org/2000/svg">
<g id="Group">
<path id="Vector" d="M18.5187 10.1658C17.8693 9.5385 16.9493 9.45183 15.6653 9.48249V0.750493C15.6813 0.193827 15.0287 -0.184174 14.5487 0.0931599C13.034 1.05983 11.2873 2.76383 10.0253 1.13783C7.94067 -0.856174 6.70733 0.227827 5.80667 1.01716C4.866 1.84516 4.18067 2.44516 2.428 0.969827C1.79467 0.418493 1.05067 -0.171507 0.483333 0.0464932C0.194 0.158493 0.006 0.441827 0 0.750493V13.3032C0.0133333 16.0272 -0.175333 17.8125 2.27533 19.2098C3.166 19.6638 4.23533 19.6638 6.366 19.6638H12.416C13.0673 19.6558 13.0727 18.6705 12.416 18.6638H6.366C4.39533 18.6638 3.40667 18.6638 2.766 18.3392C1.02133 17.2618 1.01733 16.4858 1.00533 13.9145L0.999333 1.12449C3.60733 3.36916 4.83067 3.28383 6.466 1.76583C7.366 0.975827 7.91 0.49916 9.30667 1.83249C11.2247 3.92183 13.1473 2.23916 14.6667 1.20849V17.3372C14.6533 18.5992 15.6653 19.6325 16.9267 19.6458C18.2427 19.7192 19.3647 18.6525 19.3327 17.3305V12.9305C19.3327 11.5618 19.0807 10.7092 18.5187 10.1658ZM18.332 17.3085C18.3953 19.0172 15.7553 19.1152 15.6667 17.4185C15.6653 17.3892 15.6653 17.3592 15.666 17.3298V10.4838C17.78 10.4105 18.3173 10.7472 18.332 12.9292V17.3085Z" fill="currentColor"/>
<path id="Vector_2" d="M4.04383 9.73782H6.22116C6.70183 9.73715 7.09116 9.34782 7.09183 8.86715V6.58249C7.08916 6.10315 6.7005 5.71649 6.22116 5.71582H4.04383C3.56516 5.71649 3.17649 6.10382 3.17383 6.58249V8.86715C3.17449 9.34782 3.56316 9.73715 4.04383 9.73782ZM4.17383 6.71249H6.09183V8.73782H4.17383V6.71249Z" fill="currentColor"/>
<path id="Vector_3" d="M11.9905 5.71252H9.07253C8.4192 5.71519 8.41786 6.70986 9.07253 6.71252H11.9905C12.6432 6.70986 12.6452 5.71519 11.9905 5.71252Z" fill="currentColor"/>
<path id="Vector_4" d="M11.9922 8.73779H9.07423C8.42157 8.74046 8.41957 9.73513 9.07423 9.73779H11.9922C12.6449 9.73513 12.6469 8.74046 11.9922 8.73779Z" fill="currentColor"/>
<path id="Vector_5" d="M11.9912 11.7659H3.67383C3.39783 11.7659 3.17383 11.9899 3.17383 12.2659C3.17383 12.5419 3.39783 12.7659 3.67383 12.7659H11.9912C12.6425 12.7632 12.6472 11.7685 11.9912 11.7659Z" fill="currentColor"/>
<path id="Vector_6" d="M3.67384 14.7871C3.02184 14.7898 3.01851 15.7844 3.67384 15.7871H11.9912C12.6425 15.7844 12.6472 14.7898 11.9912 14.7871H3.67384Z" fill="currentColor"/>
</g>
</svg>
