<svg width="63" height="63" viewBox="0 0 63 63" fill="none" xmlns="http://www.w3.org/2000/svg">
<g id="fluent:share-28-regular">
<rect width="63" height="63" rx="6" fill="none" fill-opacity="0.05"/>
<g id="Group">
<path id="Vector" d="M37.5248 15.3119L49.509 26.188C49.6247 26.293 49.7168 26.4189 49.7797 26.5581C49.8426 26.6972 49.875 26.8469 49.875 26.998C49.875 27.1492 49.8426 27.2989 49.7797 27.438C49.7168 27.5772 49.6247 27.7031 49.509 27.8081L37.5248 38.6842C37.4152 38.7856 37.2854 38.8656 37.1428 38.9196C37.0002 38.9737 36.8477 39.0008 36.6939 38.9992C36.376 38.9992 36.0712 38.8807 35.8465 38.6697C35.6217 38.4587 35.4955 38.1725 35.4955 37.8741V32.2636C24.7896 32.6686 20.2835 38.2942 20.0918 38.5342C19.9392 38.7227 19.7287 38.8627 19.4886 38.9351C19.2485 39.0076 18.9905 39.009 18.7496 38.9392C18.5092 38.8665 18.2994 38.7244 18.1502 38.5331C18.001 38.3419 17.92 38.1112 17.9187 37.8741C17.9187 25.8429 28.4488 22.1526 35.4955 21.7775V16.122C35.496 15.9007 35.566 15.6845 35.6967 15.5004C35.8275 15.3162 36.0131 15.1724 36.2305 15.0869C36.4457 14.9997 36.6836 14.9746 36.9141 15.0147C37.1445 15.0547 37.3571 15.1582 37.5248 15.3119ZM37.8923 31.1235V35.1889L46.9523 26.998L37.8923 18.7772V22.8726C37.8882 23.1698 37.7606 23.4537 37.5367 23.6639C37.3129 23.8741 37.0104 23.9939 36.6939 23.9977C35.1439 23.9977 22.5526 24.3278 20.5712 34.9188C25.1667 31.5583 30.872 29.8171 36.6939 29.9983C37.0104 30.0022 37.3129 30.122 37.5367 30.3322C37.7606 30.5423 37.8882 30.8263 37.8923 31.1235ZM44.6402 39.3338C44.8637 39.1235 45.1659 39.0035 45.4823 38.9992C45.7988 39.0031 46.1013 39.1229 46.3251 39.3331C46.549 39.5432 46.6766 39.8272 46.6807 40.1244V40.8744C46.6807 42.7643 45.881 44.5767 44.4576 45.9131C43.0342 47.2494 41.1037 48.0001 39.0907 48.0001H20.715C18.702 48.0001 16.7715 47.2494 15.3481 45.9131C13.9247 44.5767 13.125 42.7643 13.125 40.8744V23.6227C13.125 21.7329 13.9247 19.9204 15.3481 18.5841C16.7715 17.2477 18.702 16.497 20.715 16.497H27.9055C28.2233 16.497 28.5281 16.6155 28.7529 16.8265C28.9776 17.0375 29.1039 17.3237 29.1039 17.6221C29.1039 17.9205 28.9776 18.2067 28.7529 18.4177C28.5281 18.6287 28.2233 18.7472 27.9055 18.7472H20.715C19.339 18.7512 18.0205 19.2661 17.0475 20.1796C16.0745 21.0931 15.526 22.3309 15.5218 23.6227V40.8744C15.526 42.1663 16.0745 43.4041 17.0475 44.3176C18.0205 45.231 19.339 45.746 20.715 45.7499H39.0907C40.4667 45.746 41.7852 45.231 42.7582 44.3176C43.7312 43.4041 44.2796 42.1663 44.2839 40.8744V40.1244C44.2884 39.8273 44.4162 39.5437 44.6402 39.3338Z" fill="currentColor"/>
</g>
</g>
</svg>
