<svg width="24" height="24" viewBox="0 0 24 24" fill="none" xmlns="http://www.w3.org/2000/svg">
<g id="image-gallery (1) 1" clip-path="url(#clip0_165_107368)">
<g id="Group">
<path id="Vector" d="M17.4525 24.0001C17.2845 24.0001 17.1125 23.9791 16.9425 23.9341L1.47953 19.7931C0.419527 19.5011 -0.212473 18.4031 0.0655269 17.3431L2.01653 10.0711C2.08853 9.80414 2.36253 9.64914 2.62853 9.71714C2.89553 9.78814 3.05353 10.0631 2.98253 10.3291L1.03253 17.5991C0.893527 18.1291 1.21153 18.6811 1.74253 18.8281L17.1995 22.9671C17.7305 23.1071 18.2785 22.7911 18.4165 22.2631L19.1975 19.3691C19.2695 19.1021 19.5435 18.9431 19.8105 19.0161C20.0775 19.0881 20.2345 19.3631 20.1635 19.6291L19.3835 22.5191C19.1485 23.4091 18.3385 24.0001 17.4525 24.0001Z" fill="currentColor"/>
</g>
<g id="Group_2">
<path id="Vector_2" d="M22 18H6C4.897 18 4 17.103 4 16V4C4 2.897 4.897 2 6 2H22C23.103 2 24 2.897 24 4V16C24 17.103 23.103 18 22 18ZM6 3C5.449 3 5 3.449 5 4V16C5 16.551 5.449 17 6 17H22C22.551 17 23 16.551 23 16V4C23 3.449 22.551 3 22 3H6Z" fill="currentColor"/>
</g>
<g id="Group_3">
<path id="Vector_3" d="M9 9C7.897 9 7 8.103 7 7C7 5.897 7.897 5 9 5C10.103 5 11 5.897 11 7C11 8.103 10.103 9 9 9ZM9 6C8.449 6 8 6.449 8 7C8 7.551 8.449 8 9 8C9.551 8 10 7.551 10 7C10 6.449 9.551 6 9 6Z" fill="currentColor"/>
</g>
<g id="Group_4">
<path id="Vector_4" d="M4.57056 16.9298C4.44256 16.9298 4.31456 16.8808 4.21656 16.7838C4.02156 16.5888 4.02156 16.2718 4.21656 16.0768L8.93956 11.3538C9.50556 10.7878 10.4946 10.7878 11.0606 11.3538L12.4666 12.7598L16.3586 8.0898C16.6416 7.7508 17.0576 7.5538 17.5006 7.5498H17.5116C17.9496 7.5498 18.3646 7.7398 18.6506 8.0728L23.8806 14.1748C24.0606 14.3838 24.0366 14.6998 23.8266 14.8798C23.6176 15.0598 23.3026 15.0368 23.1216 14.8258L17.8916 8.7238C17.7946 8.6118 17.6606 8.5498 17.5116 8.5498C17.4076 8.5408 17.2246 8.6128 17.1276 8.7298L12.8846 13.8208C12.7946 13.9288 12.6636 13.9938 12.5226 13.9998C12.3806 14.0098 12.2456 13.9538 12.1466 13.8538L10.3536 12.0608C10.1646 11.8728 9.83556 11.8728 9.64656 12.0608L4.92356 16.7838C4.82656 16.8808 4.69856 16.9298 4.57056 16.9298Z" fill="currentColor"/>
</g>
</g>
<defs>
<clipPath id="clip0_165_107368">
<rect width="24" height="24" fill="white"/>
</clipPath>
</defs>
</svg>
