<svg width="44" height="44" viewBox="0 0 44 44" fill="none" xmlns="http://www.w3.org/2000/svg">
<g id="material-symbols-light:comment-outline">
<rect width="44" height="44" fill="none"/>
<path id="Vector" d="M11.9167 24.75H32.0833V22.9167H11.9167V24.75ZM11.9167 19.25H32.0833V17.4167H11.9167V19.25ZM11.9167 13.75H32.0833V11.9167H11.9167V13.75ZM38.5 36.8078L32.8588 31.1667H8.46083C7.6175 31.1667 6.9135 30.8843 6.34883 30.3197C5.78294 29.7538 5.5 29.0492 5.5 28.2058V8.46083C5.5 7.6175 5.78294 6.9135 6.34883 6.34883C6.9135 5.78294 7.6175 5.5 8.46083 5.5H35.5392C36.3825 5.5 37.0865 5.78294 37.6512 6.34883C38.2171 6.9135 38.5 7.6175 38.5 8.46083V36.8078ZM8.46083 29.3333H33.6417L36.6667 32.3473V8.46083C36.6667 8.17972 36.5493 7.92122 36.3147 7.68533C36.0788 7.45067 35.8203 7.33333 35.5392 7.33333H8.46083C8.17972 7.33333 7.92122 7.45067 7.68533 7.68533C7.45067 7.92122 7.33333 8.17972 7.33333 8.46083V28.2058C7.33333 28.4869 7.45067 28.7454 7.68533 28.9813C7.92122 29.216 8.17972 29.3333 8.46083 29.3333Z" fill="currentColor"/>
</g>
</svg>
