<svg width="14" height="14" viewBox="0 0 14 14" fill="none" xmlns="http://www.w3.org/2000/svg">
<g id="icons" clip-path="url(#clip0_165_114856)">
<path id="Vector (Stroke)" fill-rule="evenodd" clip-rule="evenodd" d="M5.3658 2.12389C5.07529 2.4144 4.91208 2.80842 4.91208 3.21927L4.91208 9.92531C4.91208 10.61 5.18408 11.2666 5.66823 11.7508C6.15238 12.2349 6.80903 12.5069 7.49372 12.5069C8.17841 12.5069 8.83506 12.2349 9.31921 11.7508C9.80336 11.2666 10.0754 10.61 10.0754 9.92531L10.0754 3.21927C10.0754 2.9343 10.3064 2.70329 10.5913 2.70329C10.8763 2.70329 11.1073 2.9343 11.1073 3.21927L11.1073 9.92531C11.1073 10.8837 10.7266 11.8028 10.0489 12.4805C9.37124 13.1582 8.45211 13.5389 7.49372 13.5389C6.53533 13.5389 5.6162 13.1582 4.93852 12.4805C4.26083 11.8028 3.88012 10.8837 3.88012 9.92531L3.88012 3.21927C3.88012 2.53473 4.15205 1.87822 4.63609 1.39418C5.12013 0.910139 5.77664 0.638205 6.46118 0.638205C7.14572 0.638205 7.80222 0.910138 8.28627 1.39418C8.77031 1.87822 9.04224 2.53473 9.04224 3.21927L9.03859 9.92896C9.03859 10.3396 8.87545 10.7335 8.58504 11.0239C8.29464 11.3143 7.90076 11.4775 7.49007 11.4775C7.07938 11.4775 6.6855 11.3143 6.3951 11.0239C6.1047 10.7335 5.94155 10.3396 5.94155 9.92895L5.9452 3.73706C5.94536 3.45209 6.17651 3.22121 6.46148 3.22138C6.74645 3.22155 6.97733 3.4527 6.97716 3.73767L6.97351 9.92895C6.97359 10.0658 7.02801 10.1974 7.12481 10.2942C7.22168 10.3911 7.35307 10.4455 7.49007 10.4455C7.62707 10.4455 7.75846 10.3911 7.85533 10.2942C7.95221 10.1973 8.00663 10.066 8.00663 9.92895L8.01028 3.21927C8.0102 2.80852 7.847 2.41434 7.55656 2.12389C7.26604 1.83338 6.87203 1.67017 6.46118 1.67017C6.05033 1.67017 5.65631 1.83338 5.3658 2.12389Z" fill="currentColor"/>
</g>
<defs>
<clipPath id="clip0_165_114856">
<rect width="14" height="14" fill="white"/>
</clipPath>
</defs>
</svg>
