<svg width="16" height="18" viewBox="0 0 16 18" fill="none" xmlns="http://www.w3.org/2000/svg">
<g id="upload">
<path id="Combo shape" fill-rule="evenodd" clip-rule="evenodd" d="M4.22537 3.55814C3.9813 3.80222 3.9813 4.19795 4.22538 4.44203C4.46946 4.6861 4.86518 4.6861 5.10926 4.44202L7.37562 2.17564V12.3334C7.37562 12.6786 7.65544 12.9584 8.00062 12.9584C8.3458 12.9584 8.62562 12.6786 8.62562 12.3334V2.17562L10.892 4.44203C11.1361 4.6861 11.5319 4.6861 11.7759 4.44202C12.02 4.19794 12.02 3.80222 11.7759 3.55814L8.44256 0.224804C8.32535 0.107594 8.16638 0.0417472 8.00062 0.041748C7.83486 0.0417489 7.67589 0.107598 7.55868 0.224808L4.22537 3.55814ZM3.28383 6.89103C3.49972 6.6217 3.45641 6.22835 3.18709 6.01245C2.91776 5.79655 2.52441 5.83986 2.30852 6.10919C1.30791 7.3574 0.708984 8.943 0.708984 10.6668C0.708984 14.6938 3.97357 17.9584 8.00065 17.9584C12.0277 17.9584 15.2923 14.6938 15.2923 10.6668C15.2923 8.943 14.6934 7.3574 13.6928 6.10919C13.4769 5.83986 13.0835 5.79655 12.8142 6.01245C12.5449 6.22835 12.5016 6.6217 12.7175 6.89103C13.5467 7.92547 14.0423 9.23739 14.0423 10.6668C14.0423 14.0035 11.3374 16.7084 8.00065 16.7084C4.66393 16.7084 1.95898 14.0035 1.95898 10.6668C1.95898 9.23739 2.45458 7.92547 3.28383 6.89103Z" fill="currentColor"/>
</g>
</svg>
